<svg xmlns="http://www.w3.org/2000/svg" viewBox="0 0 119.62 98.18"><defs><style>.cls-1{fill:#fff;}.cls-2{fill:#b4bdcc;}.cls-3{fill:#041c60;}.cls-4{fill:#ffc400;}</style></defs><g id="Vrstva_2" data-name="Vrstva 2"><g id="Vrstva_1-2" data-name="Vrstva 1"><path class="cls-1" d="M48.54,98.08c-4.66,0-7.91.22-9.47,0-5-.75-9.57-4.26-10-8.18-.16-1.29-.31-4.4-.31-4.4l-.61.13c-1.22.2-2.42.44-3.6.67a43.57,43.57,0,0,1-7.19,1c1.29-3.64,1.32-11.63.77-17.73l0-.25L13,69.08c0-2.33-.05-5.13-.1-7.85s-.1-5.53-.1-7.95v-.37l-.36.1a29.76,29.76,0,0,1-7.82,1.22c-1.13,0-2.16-.09-3.24-.18L.39,54c0-2.49-.08-7.21-.14-11.78C.18,37.44.1,32.52.1,30a2.44,2.44,0,0,0,.31-.14.59.59,0,0,1,.29-.1H.86a57.28,57.28,0,0,0,6.43-.43c1.51-.16,3.08-.33,4.87-.42C18.44,28.2,27.37,27,27.37,27l.25-25.1s.1-.1.31-.1,3.34-.09,8.3-.26C50.23,1,80.27,0,84.38,0h.5a5.25,5.25,0,0,0-.31,2L84.72,20s22.79-3.34,34.3-3.51c-1.69,4.71-2.27,18.75-.56,23.45-2.3.08-4.41.39-7.43.62l-2.82.21H108L108,41c-1.32,5.05-.3,15.45,1.4,19.76-2.76.07-5.63.15-8.1.29L101,61v.27c0,2.17,0,4.54.08,6.94,0,2.67.08,5.36.09,7.81l-.23,0-.26,0h-.39c-1.67,0-9.4.79-14,1.26a10.65,10.65,0,0,1-1.88,0l-.27,0v.27c0,.09.08,8.17.08,10.84,0,2.4-2.76,9.28-11,9.28-2.5,0-6.15.07-10,.15C58.41,98,53,98.08,48.54,98.08Z"></path><path class="cls-2" d="M101.45,60.27l-1.3-.21c-.19.36-.12.37.08.76.54,1,.36,13.18.36,14.53-2.23,0-16.88,1.45-17.23,1.45s0,1,0,1c2.11-.19,15-1.58,17.12-1.57a4.1,4.1,0,0,0,1.14,0C101.62,71.16,101.45,65.09,101.45,60.27Z"></path><path class="cls-2" d="M28.44,85.75s.23-1.11-.19-1-6.35.71-9.54,1.23c.95-3,1.32-11.16.36-17.47H17.89c.73,7.06.59,15.69-.82,19C20.45,87.49,24.35,86.42,28.44,85.75Z"></path><path class="cls-2" d="M108.77,39.79c-.6,0-.38-.06-.87-.06-2,3.87-1.19,16,.9,19.92-2.58.09-6.22.25-8.65.41l.46,1.16c2.83-.2,6.4-.29,9.36-.36C108.06,56.58,106.92,44.16,108.77,39.79Z"></path><path class="cls-2" d="M119.62,16c-11.05.1-34.41,3.19-35.25,3.31s-.62.8-.62,1.18a289.91,289.91,0,0,1,34.53-3c-2,3.86-2.48,17.4-.39,21.31-2.58.09-7.56.73-10,.9l.45,1.15c2.84-.2,7.75-.77,10.71-.84C117.15,35.78,117.77,20.42,119.62,16Z"></path><path class="cls-2" d="M12.65,52.7c0,5,.21,11.69.21,16.51l1-.13c.19-.36.12-.37-.08-.76-.53-1-.39-14.27-.39-15.62C13.06,52.7,13.14,52.56,12.65,52.7Z"></path><path class="cls-2" d="M12.33,28.44c-4.27.2-7.19.87-11.46.85-.35,0-.38.17-.87.31,0,5,.29,19.72.29,24.54l1-.13c.2-.36.12-.37-.08-.76-.53-1-.47-21.78-.47-23.12A216.06,216.06,0,0,0,28.5,27.41c0-.49.27-1-.69-.85S18.57,27.78,12.33,28.44Z"></path><polygon class="cls-2" points="13.12 68.48 17.89 68.48 18.58 69.04 18.12 69.5 12.86 69.21 13.12 68.48"></polygon><path class="cls-2" d="M13.4,52.93a28.77,28.77,0,0,1-13,1.17c.15-2,.26-.86.87-.85,8.11.38,11.94-1,12.22-1.1Z"></path><path class="cls-3" d="M77.51,84.13c0,3.13.41,8.61-15.36,8.77H51c-16.09,0-15.29-5.46-15.59-8.33-.06-.51-3.74-.25-3.74-.25C31.66,95,38.76,95,51,95H62.18c12-.16,19-.07,19-10.64C81.16,84.32,77.51,83.62,77.51,84.13Z"></path><path class="cls-3" d="M4.42,33.78c1.36-.14,2.72-.23,4.08-.36A1,1,0,0,1,9.63,34c.86,1.84,1.76,3.66,2.66,5.47.2.41.46.78.77,1.32A4.86,4.86,0,0,0,13.6,40c1-2.2,2-4.4,2.87-6.62a1,1,0,0,1,1-.73l3.43-.26c.36,0,.71,0,1.17,0-.62,1.5-.37,2.91-.41,4.32-.05,2-.05,4.08-.05,6.11,0,1.14,0,2.27.07,3.38a15.21,15.21,0,0,0,.29,2,16.56,16.56,0,0,1-4.06.36V42.86c0-1.87.13-3.79-.06-5.77a2.2,2.2,0,0,0-.8,1.1c-.88,2.13-1.78,4.26-2.68,6.41-.41,1-.83,2-1.25,3.07-.19.43-.42.87-.71,1.51-.25-.47-.48-.76-.63-1.11-1.11-2.49-2.22-5-3.35-7.49-.31-.71-.62-1.41-1-2.1A3.23,3.23,0,0,0,7,38a3,3,0,0,0-.16.68c0,1.1-.07,2.21-.07,3.3,0,2,0,4,0,6,0,.54,0,1.06.09,1.69A12.09,12.09,0,0,1,4,49.7c.69-1.61.42-3.16.44-4.7,0-2.79,0-5.58,0-8.37A5,5,0,0,0,4,34C4.19,33.88,4.29,33.79,4.42,33.78Z"></path><path class="cls-3" d="M23.53,35a87.16,87.16,0,0,1,10-1.43c.06.83-.1,1-.85,1a16.54,16.54,0,0,0-1.69.2c-1,.14-2,.27-3.09.44-.71.1-.86.29-.86,1s0,1.11,0,1.68.11.63.67.55c.91-.11,1.81-.23,2.72-.36l.86-.13a13.42,13.42,0,0,1-.65,1.61c-.08.16-.42.27-.64.32-.63.11-1.27.18-1.92.25-.91.11-1.08.32-1.08,1.21,0,1.21,0,2.41,0,3.62,0,.63.15.8.79.71,1.67-.26,2.75-.49,4.41-.81.4-.05.63,0,.73.34s.25.76.44,1.28c-1.85.35-3,.54-4.72.75s-3.44.49-5.14.73C23.61,43.51,23.67,39.24,23.53,35Z"></path><path class="cls-3" d="M42.61,34.38a4.22,4.22,0,0,1-.47-.49A2.28,2.28,0,0,0,40.35,33a2.34,2.34,0,0,0-.93.12c-1,.37-1.31,1.2-.77,2a4.07,4.07,0,0,0,1.12.94,20.06,20.06,0,0,0,1.81.87,7.25,7.25,0,0,1,2.48,1.83c1.33,1.53.94,3.44-.58,5A6.33,6.33,0,0,1,39,45.85a13,13,0,0,1-4-.49,2.1,2.1,0,0,1-.75-.32.59.59,0,0,1-.16-.52c.29-.82.64-1.64,1-2.45,0,0,.09,0,.15-.08.25.31.5.65.77,1a4.73,4.73,0,0,0,1.78,1.41,3.19,3.19,0,0,0,2.45,0c1.41-.51,1.9-1.79,1-2.81a5.7,5.7,0,0,0-1.49-1.19c-.89-.55-1.82-1-2.72-1.54a4.25,4.25,0,0,1-1.51-1.71A3.19,3.19,0,0,1,36,33.7a3.11,3.11,0,0,1,.85-.68,8.24,8.24,0,0,1,6.7-.62,4.1,4.1,0,0,1,.49.34C43.57,33.28,43.13,33.79,42.61,34.38Z"></path><path class="cls-3" d="M49.11,44V33.48c0-.23,0-.48,0-.72,0-.65-.17-.81-.77-.71-.87.12-1.76.27-2.63.45s-.87.1-.95-.83l12.16-2c0,.25-.08.43-.12.62-.08.44-.35.57-.77.59-.91.09-1.84.22-2.75.37-.61.1-.71.22-.73.81,0,.79,0,1.56,0,2.34v7.33a13,13,0,0,0,.19,1.69Z"></path><path class="cls-3" d="M54.73,41.73c.56-1.4,1.1-2.79,1.6-4.19.78-2.16,1.53-4.3,2.28-6.46a14.24,14.24,0,0,0,.29-1.68.77.77,0,0,1,.33-.16c.68-.11,1.39-.2,2.07-.32a.94.94,0,0,1,1.1.58c.33.73.67,1.47,1,2.21,1.22,2.85,2.47,5.69,3.69,8.56.08.2.14.42.25.74l-2.43.45a5.35,5.35,0,0,0-.56.07c-1,.31-.91.07-1.26-.61-.25-.46-.44-1-.69-1.42a3,3,0,0,0-2.9-1.25c-.35,0-.75.14-1.1.17a1.09,1.09,0,0,0-.95.85c-.32.95-.67,1.91-1,2.87-.21.68-.23.71-.89.81l-1.68.27A16.84,16.84,0,0,0,54.73,41.73Zm4.83-8.53a23.15,23.15,0,0,0-1.22,3.51c-.11.4.08.51.47.47.63-.06,1.25-.12,1.89-.16s.75-.18.54-.72l-1-2.35c-.13-.3-.3-.57-.42-.84C59.75,33.14,59.64,33.16,59.56,33.2Z"></path><path class="cls-3" d="M68.33,40.7c0-4.3.15-8.63-.08-13,.14,0,.31-.08.48-.11.81-.14,1.6-.24,2.39-.42a1.36,1.36,0,0,1,1.39.43c1.84,1.76,3.69,3.52,5.56,5.26.27.25.48.66,1.06.6a20.33,20.33,0,0,0,0-3.58,5.91,5.91,0,0,1,2-.34c-.11,4.38-.13,4.87,0,9.23a5.28,5.28,0,0,1-2.06.29c-.12,0-.25-.13-.35-.24l-5.55-5.39c-.66-.66-1.35-1.32-2-1.95-.21-.2-.46-.35-.73-.56a2.3,2.3,0,0,0-.29,1.4c0,1.5-.08,3,0,4.44.08,1.18-.29,2.45.31,3.5A4.1,4.1,0,0,1,68.33,40.7Z"></path><path class="cls-3" d="M90.45,27.08a3.7,3.7,0,0,1-.48-.51,2.38,2.38,0,0,0-1.8-.9,2.51,2.51,0,0,0-.93.1c-1,.34-1.32,1.16-.77,1.93a4.38,4.38,0,0,0,1.12,1c.58.36,1.21.62,1.81.92a7.69,7.69,0,0,1,2.5,1.9c1.34,1.57.94,3.47-.58,5a6.2,6.2,0,0,1-4.52,2,13.72,13.72,0,0,1-4.06-.61,2.15,2.15,0,0,1-.75-.35.57.57,0,0,1-.17-.52c.29-.82.65-1.62,1-2.42,0,0,.09,0,.15-.08.25.32.5.67.77,1a5,5,0,0,0,1.79,1.47A3.26,3.26,0,0,0,88,37c1.41-.47,1.91-1.73,1.06-2.78A6.31,6.31,0,0,0,87.55,33c-.9-.58-1.83-1.07-2.73-1.62a4.64,4.64,0,0,1-1.52-1.76,3.15,3.15,0,0,1,.52-3.43,2.61,2.61,0,0,1,.86-.65,8.23,8.23,0,0,1,6.72-.43,4.72,4.72,0,0,1,.5.36C91.4,26,91,26.51,90.45,27.08Z"></path><path class="cls-3" d="M93.91,37.26c.13-4.37.17-8.68,0-13l3.62-.36c-.25,4.35-.07,8.64-.07,13.05Zm3.83-9.76c.83-.92,1.67-1.82,2.49-2.76a3.21,3.21,0,0,0,.5-.93c.1-.24.17-.48.46-.51l2.32-.22s.08.07.15.15c-.13.18-.26.38-.4.56q-1.76,2-3.51,4.11c-.42.5-.44.61,0,1.09,1.53,1.85,3.06,3.65,4.6,5.45a7.53,7.53,0,0,0,1.11.92l.54.43a1.86,1.86,0,0,1-.46.24l-3.76.36c-.4,0-.52-.09-.63-.48a5.07,5.07,0,0,0-.66-1.55c-1.07-1.43-2.2-2.81-3.33-4.19a12.31,12.31,0,0,0-.94-.9C96.71,28.68,97.24,28.08,97.74,27.5Z"></path><path class="cls-3" d="M106.59,30.74a3.66,3.66,0,0,0-.48-1.39c-.76-1.63-1.51-3.23-2.29-4.81-.23-.45-.52-.83-.81-1.29a1.94,1.94,0,0,1,.42-.15c.73-.08,1.44-.11,2.18-.18a1.23,1.23,0,0,1,1.36.8c.5,1.18,1.06,2.32,1.63,3.47.13.27.27.49.48.85a7.81,7.81,0,0,0,.59-.8c.67-1.35,1.34-2.68,2-4,.27-.54.56-.86,1.17-.8a4.61,4.61,0,0,0,1-.05c-.11.3-.13.54-.23.73l-3.27,6.6a2.57,2.57,0,0,0-.27.95c0,1.47,0,2.94,0,4.43a3.43,3.43,0,0,0,.12.62c-1.24.23-2.43.22-3.58.34C106.59,34.16,106.63,32.44,106.59,30.74Z"></path><path class="cls-3" d="M32.38,49.51l2.86-.42c-.17,4.67-.13,9.22-.06,13.86a23.64,23.64,0,0,1-3.72.53V49.72Z"></path><path class="cls-3" d="M38.47,48.64l1.43-.21a1.06,1.06,0,0,1,1.34.74c.35.83.68,1.69,1,2.52.7,1.69,1.38,3.38,2.11,5a3.43,3.43,0,0,0,.39.6c.09,0,.16,0,.22,0,.2-.5.42-1,.57-1.48l2.71-8c.22-.7.37-.82,1-.9l.83,0,.24.08c-.06.25-.11.53-.19.78-.9,2.57-1.83,5.12-2.73,7.7-.59,1.63-1.18,3.26-1.75,4.88a1.69,1.69,0,0,1-1.47,1.37,8.27,8.27,0,0,1-2.47.29,7.4,7.4,0,0,0-.94-3.29c-1.12-2.6-2.24-5.2-3.38-7.79a13.7,13.7,0,0,0-.81-1.27c-.09-.12-.16-.25-.33-.48C37.11,48.9,37.79,48.75,38.47,48.64Z"></path><path class="cls-3" d="M50.17,54.91A7.36,7.36,0,0,1,51.53,49a8.32,8.32,0,0,1,8-4,6,6,0,0,1,5.29,6.82c-.37,3.84-3.8,7.4-7.27,7.78A6.08,6.08,0,0,1,50.17,54.91Zm10.34-6a4.25,4.25,0,0,0-1-1.94c-1-1.11-2.5-1.06-3.69.22a6.56,6.56,0,0,0-1.12,1.76,11,11,0,0,0-.42,6.58,4.74,4.74,0,0,0,1.47,2.61,2.26,2.26,0,0,0,3.19-.34,5.63,5.63,0,0,0,1.31-2.06A13.41,13.41,0,0,0,61,51.47C60.84,50.86,60.68,49.87,60.51,48.89Z"></path><path class="cls-3" d="M65.92,44.09l1.43-.19a1.09,1.09,0,0,1,1.34.76c.36.84.69,1.7,1,2.54.7,1.69,1.38,3.39,2.11,5.06a3.17,3.17,0,0,0,.39.61c.09,0,.16,0,.22,0,.2-.5.42-1,.58-1.47l2.7-8c.22-.7.38-.82,1-.89l.83,0,.24.08c-.06.25-.11.53-.19.78-.91,2.56-1.83,5.1-2.73,7.66q-.9,2.43-1.76,4.86a1.67,1.67,0,0,1-1.48,1.36,8.47,8.47,0,0,1-2.46.25,7.58,7.58,0,0,0-.94-3.3c-1.13-2.62-2.25-5.23-3.39-7.84A13.23,13.23,0,0,0,64.07,45c-.08-.12-.15-.25-.33-.49C64.56,44.34,65.24,44.19,65.92,44.09Z"></path><path class="cls-3" d="M76.7,55c.59-1.46,1.17-2.91,1.7-4.37.84-2.27,1.63-4.5,2.42-6.76a11.77,11.77,0,0,0,.31-1.77.94.94,0,0,1,.36-.16l2.2-.25a1,1,0,0,1,1.17.65c.35.78.71,1.58,1.06,2.38,1.3,3.06,2.63,6.12,3.93,9.2.09.21.15.45.26.79l-2.58.39c-.2,0-.4,0-.6.05-1.05.29-1,0-1.34-.69-.27-.5-.46-1.06-.73-1.53a3.29,3.29,0,0,0-3.09-1.44c-.37,0-.79.12-1.17.15a1.11,1.11,0,0,0-1,.86c-.33,1-.71,2-1,3-.22.72-.24.74-1,.83l-1.78.23A17.76,17.76,0,0,0,76.7,55Zm5.14-8.85a23.89,23.89,0,0,0-1.3,3.67c-.11.42.09.55.5.52.67,0,1.33-.08,2-.1s.8-.17.58-.74c-.36-.84-.71-1.69-1.06-2.53-.14-.32-.31-.61-.44-.91C82,46.08,81.93,46.09,81.84,46.13Z"></path><path class="cls-3" d="M89.48,40.92c3-.26,6-.58,9-.73,1.91-.12,2.86.6,3.33,1.87a5.05,5.05,0,0,1,0,3,6.51,6.51,0,0,1-2.62,3.36l-.75.55a13,13,0,0,0,3.06,3.12c1.1.91,2.3,1.69,3.48,2.53,0,0,0,.07,0,.07a6.79,6.79,0,0,1-5.18-.58,17.12,17.12,0,0,1-4.68-4.61l-.71-1,1.18-.68a5.07,5.07,0,0,0,2.74-4.06,2.51,2.51,0,0,0-.59-1.93,1.53,1.53,0,0,0-1.33-.55c-.93.08-1.86.16-2.8.26-.53.07-.64.19-.66.72,0,.87,0,1.72,0,2.56,0,2.85,0,5.7,0,8.52,0,.31,0,.62.07.91a11.74,11.74,0,0,1-3.81.41c.2-3.55.07-7.05.09-10.59v-.76c0-.75-.07-1.5-.11-2.32A1.47,1.47,0,0,1,89.48,40.92Z"></path><path class="cls-3" d="M18.05,54.61c0-1-.05-2.08-.07-3.23a4.43,4.43,0,0,1,.67-.13c2.36-.26,4.74-.54,7.12-.75a6,6,0,0,1,2,.14c1.46.34,2.09,1.76,1.9,3.3a5.36,5.36,0,0,1-2.81,3.87,14.07,14.07,0,0,1-4.43,1.76c-.79.19-.9.27-.92,1.09,0,1.07,0,2.14,0,3.29a22.6,22.6,0,0,1-3.57.43C18.17,61,18.05,57.8,18.05,54.61Zm3.46.17v2a4.32,4.32,0,0,0,.06.47c0,.31.19.42.53.43a4.05,4.05,0,0,0,4-4.64,1.53,1.53,0,0,0-1.44-1.43,19.25,19.25,0,0,0-2.4.19c-.62.09-.71.18-.73.79s0,1.45,0,2.17Z"></path><path class="cls-3" d="M26.77,80.92a6.39,6.39,0,0,1-.74.2c-1,.18-1.88.33-2.81.48,0-4.51.1-8.94-.07-13.36l3.66-.6C26.66,72.16,26.72,76.47,26.77,80.92Zm.15-8.48c1-1.27,2.13-2.51,3.19-3.8a5.41,5.41,0,0,0,.8-1.33.9.9,0,0,1,.76-.68c.72-.1,1.44-.23,2.28-.37a4.08,4.08,0,0,1-.25.49Q31.89,69,30.09,71.32c-.53.66-.55.86-.07,1.4,1.35,1.55,2.71,3.11,4.06,4.64.53.58.71.88,1.19,1.49a5.49,5.49,0,0,0,2.64,2.09,1.63,1.63,0,0,1-.4.15c-.72.14-1.46.28-2.17.36a2.26,2.26,0,0,1-2-.64C32.53,80,32,79.5,31.27,78.64c-1.23-1.39-2.37-2.81-3.55-4.22-.4-.45-.84-.84-1.31-1.32A8.27,8.27,0,0,1,26.92,72.44Z"></path><path class="cls-3" d="M35,74.17a7.08,7.08,0,0,1,1.31-5.69A8,8,0,0,1,44,64.67a5.77,5.77,0,0,1,5.09,6.56c-.36,3.69-3.66,7.11-7,7.48A5.86,5.86,0,0,1,35,74.17Zm10-5.79a4.18,4.18,0,0,0-1-1.87c-1-1.06-2.41-1-3.55.21a6.12,6.12,0,0,0-1.08,1.7,10.48,10.48,0,0,0-.4,6.33,4.51,4.51,0,0,0,1.41,2.51,2.18,2.18,0,0,0,3.07-.32,5.58,5.58,0,0,0,1.26-2,12.91,12.91,0,0,0,.7-4.1C45.3,70.28,45.15,69.32,45,68.38Z"></path><path class="cls-3" d="M46.9,78.91c2.14-.54,3.19-2.14,3.81-4.11a6,6,0,0,0,.44-2.62c0-1.33-.07-5.09-.11-6.42a15.14,15.14,0,0,0-.22-1.91,36.3,36.3,0,0,1,4-.61c-.09.92-.19,1.77-.19,2.6,0,1.74.14,4.75.07,6.49a6.64,6.64,0,0,1-4.95,6.49,20.34,20.34,0,0,1-2.49.51,2.92,2.92,0,0,1-.59,0v-.2C46.73,79,46.82,79,46.9,78.91Z"></path><path class="cls-3" d="M56.42,63a86.36,86.36,0,0,1,10.2-1.38c.06.85-.11,1-.87,1.06a17.06,17.06,0,0,0-1.72.19c-1,.14-2.1.26-3.16.43-.72.09-.87.28-.87,1S60,65.4,60,66s.11.65.68.57c.94-.1,1.85-.23,2.78-.35l.87-.12a12.24,12.24,0,0,1-.66,1.63c-.08.16-.42.27-.66.32-.63.11-1.29.18-2,.25-.93.1-1.1.32-1.1,1.21,0,1.24,0,2.46,0,3.7,0,.64.15.81.81.73,1.7-.25,3.39-.55,5.09-.86.4,0,.64,0,.74.35s.26.78.45,1.31c-1.89.34-3.65.6-5.41.79s-3.5.47-5.24.7C56.5,71.69,56.56,67.34,56.42,63Z"></path><path class="cls-3" d="M69.08,74.55V63.81c0-.23,0-.49,0-.73,0-.66-.17-.84-.78-.77-.9.08-1.81.19-2.71.33s-.89.06-1-.9c4.14-.46,7.24-.86,11.45-1.33A6.27,6.27,0,0,1,76,61c-.08.44-.36.56-.78.56a15.44,15.44,0,0,0-1.8.17c-.62.07-.73.18-.75.79,0,.79,0,1.58,0,2.38V72.4a15.82,15.82,0,0,0,.19,1.74Z"></path><path class="cls-3" d="M81.82,58.17c.5-.71,1-1.45,1.46-2.35-1.79-.49-2.74.27-3.35,2.42C80.81,58.85,81.41,58.69,81.82,58.17Z"></path><path class="cls-3" d="M78.34,60.39l-.89.14V73.77a22.25,22.25,0,0,0,3.6-.28c-.06-4.46-.11-8.85.07-13.33Z"></path><path class="cls-3" d="M83.21,73.1c0-4.38.15-8.78-.09-13.22.15,0,.32-.05.49-.06.84-.06,1.65-.07,2.46-.17a1.55,1.55,0,0,1,1.44.59c1.9,2,3.8,4,5.73,6,.27.29.49.73,1.09.73a27.66,27.66,0,0,0,.08-3.75c0-1.22,0-2.44,0-3.76a5.63,5.63,0,0,1,2.09-.13c-.1,4.45-.12,8.82,0,13.28a5.37,5.37,0,0,1-2.12.07.73.73,0,0,1-.36-.28c-1.91-2-3.81-4.06-5.71-6.1-.69-.74-1.39-1.49-2.1-2.2-.21-.23-.47-.41-.75-.66a2.24,2.24,0,0,0-.3,1.41c0,1.51-.08,3,0,4.51.09,1.22-.3,2.47.32,3.6A4,4,0,0,1,83.21,73.1Z"></path><path class="cls-3" d="M110.29,22.61a22.35,22.35,0,0,0,1.46-2.35c-1.78-.49-2.74.28-3.35,2.43C109.28,23.29,109.89,23.14,110.29,22.61Z"></path><path class="cls-4" d="M45.37,83.15l-1.14.22a.14.14,0,0,1-.13-.05s0-.13-.08-.22c.61-.14,1.19-.22,1.77-.32s1.17-.2,1.8-.31l-.71,1.23c-.23.41-.48.82-.7,1.23a9.88,9.88,0,0,0-.69,1.25h.24l1.38-.24.16-.05c.21-.07.24-.06.3.11a1.82,1.82,0,0,1,.07.25s0,0,0,.08l-.13.06L44,87c.78-1.33,1.51-2.61,2.23-3.9l0-.07Z"></path><path class="cls-4" d="M47.42,86c.18-.42.34-.83.49-1.25.25-.64.48-1.28.71-1.92a3.21,3.21,0,0,0,.09-.5.19.19,0,0,1,.1,0l.62-.1a.28.28,0,0,1,.33.17L50,83l1.08,2.53.07.22-.73.14a.88.88,0,0,0-.16,0c-.3.09-.27,0-.38-.18s-.12-.29-.2-.42a.86.86,0,0,0-.86-.37c-.11,0-.22,0-.33,0a.34.34,0,0,0-.29.25c-.09.29-.2.57-.3.86s-.07.21-.27.24l-.5.08A3.08,3.08,0,0,0,47.42,86Zm1.47-2.54a8.06,8.06,0,0,0-.37,1c0,.12,0,.16.14.14l.56,0c.18,0,.23,0,.17-.21s-.2-.47-.29-.7S49,83.49,49,83.4Z"></path><path class="cls-4" d="M51.67,81.8l.91-.14c0,.44,0,.85,0,1.26,0,.65,0,1.29,0,1.94V85c0,.1.06.16.17.14.49-.08,1-.15,1.47-.25.27,0,.32,0,.37.21a1,1,0,0,1,0,.12l-3.06.46c0-1.27.07-2.56,0-3.85Z"></path><path class="cls-4" d="M55.46,83.9a.49.49,0,0,1,.56.51.76.76,0,0,1-.59.69.49.49,0,0,1-.58-.54A.69.69,0,0,1,55.46,83.9Z"></path><path class="cls-4" d="M61.61,83.91l1.16.16a.36.36,0,0,1-.1.11,1.86,1.86,0,0,1-1.59.42,11.24,11.24,0,0,0-2.4-.27h-.16c.08-.07.12-.12.16-.16.37-.31.74-.61,1.09-.93A6.81,6.81,0,0,0,61,81.8a2.63,2.63,0,0,0,.43-1.21c0-.35-.18-.61-.47-.61a1,1,0,0,0-.86.42l-.25.38a2.24,2.24,0,0,1-.51-.36,2,2,0,0,1,.19-.21,2.16,2.16,0,0,1,1.19-.58,5.87,5.87,0,0,1,.83,0c.55,0,.87.39.92,1a2.2,2.2,0,0,1-.37,1.3,6,6,0,0,1-1.14,1.32l-.43.4s0,.05,0,.07A10.11,10.11,0,0,0,61.61,83.91Z"></path><path class="cls-4" d="M66.93,79.72a2.43,2.43,0,0,1,.47,1.52,3.18,3.18,0,0,1-1,2.29,1.88,1.88,0,0,1-2.45.19,2.71,2.71,0,0,1-.69-2.92A3.47,3.47,0,0,1,64,79.56,2,2,0,0,1,65.27,79,1.66,1.66,0,0,1,66.93,79.72Zm-.69,1.8a4.16,4.16,0,0,0-.15-1.42,1.58,1.58,0,0,0-.34-.64.54.54,0,0,0-.69-.09,1,1,0,0,0-.48.59,4.48,4.48,0,0,0,0,3.28.75.75,0,0,0,.27.36.52.52,0,0,0,.59.08,1,1,0,0,0,.47-.51,3.48,3.48,0,0,0,.34-1.53S66.23,81.56,66.24,81.52Z"></path><path class="cls-4" d="M70.84,83c.38.08.77.13,1.16.2a.38.38,0,0,1-.1.12,1.81,1.81,0,0,1-1.59.35,12,12,0,0,0-2.4-.36h-.16l.16-.16c.36-.29.74-.58,1.09-.88a6.54,6.54,0,0,0,1.18-1.39,2.39,2.39,0,0,0,.43-1.19.55.55,0,0,0-.47-.64,1,1,0,0,0-.86.4c-.08.1-.15.22-.25.36a2.05,2.05,0,0,1-.51-.38,1.84,1.84,0,0,1,.19-.2,2,2,0,0,1,1.19-.53,4.72,4.72,0,0,1,.84,0,1,1,0,0,1,.91,1A2.07,2.07,0,0,1,71.28,81a5.48,5.48,0,0,1-1.13,1.27l-.44.39,0,.07A8.19,8.19,0,0,0,70.84,83Z"></path><path class="cls-4" d="M73,82.42c0-1,0-2,0-3.06a.39.39,0,0,0-.33-.46.77.77,0,0,1-.24-.12l1.7-.42c0,.19,0,.36,0,.52,0,.43,0,.88,0,1.31l0,1.62c0,.41,0,.82,0,1.27-.4.07-.81.07-1.21.1C73,82.89,73,82.65,73,82.42Z"></path><path class="cls-4" d="M41.67,16.73v-.07h0c0-.09,0-.17,0-.24a8.45,8.45,0,0,1-.13-1l-1.26-1a3.74,3.74,0,0,1-.49-.39c-.81-.82-1.6-1.66-2.39-2.5L35,9c-.7-.74-1.39-1.47-2.11-2.19a.89.89,0,0,0-.46-.26,5.64,5.64,0,0,0-1,0V26.86a6.78,6.78,0,0,0,1,0,.81.81,0,0,0,.46-.25c.72-.73,1.41-1.45,2.11-2.19S36.6,22.79,37.38,22,39,20.3,39.77,19.48a3.05,3.05,0,0,1,.49-.39L41.52,18a8.72,8.72,0,0,1,.13-1c0-.07,0-.14,0-.23h0Zm-6.83,3.86c-.58.59-1.14,1.18-1.73,1.76a1.39,1.39,0,0,1-.36.2c-.18-1-.18-10.64,0-11.64a1.39,1.39,0,0,1,.36.2c.59.57,1.15,1.16,1.73,1.75,1.18,1.2,2.36,2.39,3.53,3.6a1.23,1.23,0,0,0,.4.27,1.19,1.19,0,0,0-.4.26Q36.62,18.81,34.84,20.59Z"></path><path class="cls-4" d="M53.09,16.82a1.22,1.22,0,0,0-.23-.32L46.15,9.79a1.22,1.22,0,0,0-.32-.23c-2.3,2.53-4.75,4.79-7.17,7.21a1.74,1.74,0,0,0,.18.22l6.82,6.82a1.74,1.74,0,0,0,.22.18C48.3,21.57,50.56,19.12,53.09,16.82ZM43,17.31c-.45-.5-.45-.54,0-1l1.19-1.18,1.27-1.28c.41-.41.47-.4.87,0,.11.1.2.22.32.31s1.79,1.78,1.83,1.83a3,3,0,0,0,.31.31c.39.41.4.47,0,.88l-1.28,1.27-1.18,1.19c-.47.46-.51.46-1,0C45.2,19.51,43.14,17.45,43,17.31Z"></path><path class="cls-4" d="M71,16.8h0a1.52,1.52,0,0,0,0,.23,8.69,8.69,0,0,1,.12,1l1.26,1.05a3.82,3.82,0,0,1,.5.39c.8.82,1.59,1.66,2.38,2.49s1.55,1.64,2.34,2.46,1.4,1.46,2.11,2.19a.84.84,0,0,0,.47.25,6.66,6.66,0,0,0,1,0V6.6a5.55,5.55,0,0,0-1,0,.92.92,0,0,0-.47.26c-.71.72-1.41,1.45-2.11,2.19l-2.34,2.45c-.79.84-1.58,1.68-2.38,2.5a4.94,4.94,0,0,1-.5.39l-1.26,1a8.44,8.44,0,0,1-.12,1,1.66,1.66,0,0,0,0,.24h0v.14Zm3.3.19a1,1,0,0,0-.4-.26,1.05,1.05,0,0,0,.4-.27c1.17-1.21,2.35-2.4,3.53-3.6.58-.59,1.14-1.18,1.73-1.75a1.32,1.32,0,0,1,.37-.2c.17,1,.17,10.64,0,11.64a1.32,1.32,0,0,1-.37-.2c-.59-.58-1.15-1.17-1.73-1.76Q76.1,18.81,74.34,17Z"></path><path class="cls-4" d="M66.83,24a1.74,1.74,0,0,0,.22-.18L73.87,17a1.74,1.74,0,0,0,.18-.22c-2.42-2.42-4.87-4.68-7.17-7.21a1.41,1.41,0,0,0-.32.23L59.85,16.5a2,2,0,0,0-.23.32C62.15,19.12,64.41,21.57,66.83,24Zm.55-4.36c-.5.45-.55.45-1,0l-1.19-1.19L63.9,17.16c-.41-.41-.39-.47,0-.88A3,3,0,0,0,64.2,16c0-.05,1.78-1.79,1.83-1.83s.21-.21.32-.31c.4-.39.46-.4.87,0l1.28,1.28,1.18,1.18c.47.47.47.51,0,1C69.57,17.45,67.51,19.51,67.38,19.63Z"></path><path class="cls-4" d="M63.54,16.82a1.22,1.22,0,0,0-.23-.32L56.6,9.79a1.22,1.22,0,0,0-.32-.23c-2.3,2.53-4.75,4.79-7.17,7.21a1.74,1.74,0,0,0,.18.22l6.82,6.82a1.74,1.74,0,0,0,.22.18C58.75,21.57,61,19.12,63.54,16.82Zm-10.07.49c-.46-.5-.46-.54,0-1l1.18-1.18,1.28-1.28c.41-.41.47-.4.87,0,.11.1.2.22.32.31S58.92,15.92,59,16a3,3,0,0,0,.31.31c.38.41.4.47,0,.88L58,18.43,56.8,19.62c-.47.46-.52.46-1,0C55.65,19.51,53.59,17.45,53.47,17.31Z"></path><path class="cls-3" d="M77.45,84.13c.15-4.52,0-2.18,0-6.65.19,0,.65-.09.93-.13.95-.18,1.68-.15,2.61-.3,0,4.51-.1,2.9.07,7.33Z"></path><path class="cls-3" d="M28.23,35a27.16,27.16,0,0,0,2.19-2.25c.26-.37.12-1-.91-1.58-.61.58-1.29,1.09-1.88,1.7C27.25,33.32,27.2,33.92,28.23,35Z"></path><path class="cls-3" d="M27.44,35a25.5,25.5,0,0,1-2.18-2.25c-.27-.37-.13-1,.91-1.58.6.58,1.28,1.09,1.87,1.7C28.43,33.32,28.48,33.92,27.44,35Z"></path><path class="cls-3" d="M40,32.59a27,27,0,0,0,2.18-2.25c.27-.37.13-1-.91-1.57-.61.58-1.28,1.08-1.88,1.69C39,30.94,39,31.54,40,32.59Z"></path><path class="cls-3" d="M39.23,32.59A27.16,27.16,0,0,1,37,30.34c-.27-.37-.12-1,.91-1.57.61.58,1.29,1.08,1.88,1.69C40.21,30.94,40.26,31.54,39.23,32.59Z"></path><path class="cls-3" d="M51.07,31.2A25.5,25.5,0,0,0,53.25,29c.27-.37.13-1-.9-1.57-.61.57-1.29,1.08-1.88,1.69C50.09,29.55,50,30.15,51.07,31.2Z"></path><path class="cls-3" d="M50.28,31.2A25.5,25.5,0,0,1,48.1,29c-.27-.37-.13-1,.9-1.57.61.57,1.29,1.08,1.88,1.69C51.26,29.55,51.32,30.15,50.28,31.2Z"></path><path class="cls-4" d="M47.56,5.56a1.68,1.68,0,0,1-3.36,0A1.68,1.68,0,0,1,47.56,5.56Z"></path><path class="cls-4" d="M58,5.56c0,2.17-3.38,2.17-3.35,0A1.68,1.68,0,0,1,58,5.56Z"></path><path class="cls-4" d="M68.45,5.56c0,2.17-3.38,2.17-3.35,0A1.68,1.68,0,0,1,68.45,5.56Z"></path><path class="cls-4" d="M42.42,8.82a1.68,1.68,0,0,1-3.36,0A1.68,1.68,0,0,1,42.42,8.82Z"></path><path class="cls-4" d="M52.87,8.82a1.68,1.68,0,0,1-3.36,0A1.68,1.68,0,0,1,52.87,8.82Z"></path><path class="cls-4" d="M63.32,8.82a1.68,1.68,0,0,1-3.36,0A1.68,1.68,0,0,1,63.32,8.82Z"></path><path class="cls-4" d="M73.94,8.82a1.68,1.68,0,0,1-3.35,0C70.56,6.65,74,6.65,73.94,8.82Z"></path></g></g></svg>